# xmcd
#
# Track frame offsets:
#	150
#	8035
#	26327
#	29488
#	49307
#	59759
#	77833
#	97892
#	112690
#	132626
#	151439
#
# Disc length: 2280 seconds
#
# Revision: 1
# Processed by: cddbd v1.5.2PL0 Copyright (c) Steve Scherf et al.
# Submitted via: audiograbber 1.83.01
#
DISCID=8808e60b
DTITLE=Bob Urh and The Bare Bones - Hoodoo Garage
DYEAR=1900
DGENRE=
TTITLE0=Bad World Revisited
TTITLE1=Cracker Daddies and Crocodiles
TTITLE2=Red Skin Man Intro
TTITLE3=Pretending
TTITLE4=Gypsy Davey
TTITLE5=Wonderful
TTITLE6=The Sky Is Crying
TTITLE7=Que Milagro
TTITLE8=Graveyard Shift
TTITLE9=After the Sun
TTITLE10=Que Milagro Reprise
EXTD=
EXTT0=
EXTT1=
EXTT2=
EXTT3=
EXTT4=
EXTT5=
EXTT6=
EXTT7=
EXTT8=
EXTT9=
EXTT10=
PLAYORDER=
